<mxfile host="app.diagrams.net" modified="2023-04-21T15:21:25.680Z" agent="Mozilla/5.0 (Windows NT 10.0; Win64; x64) AppleWebKit/537.36 (KHTML, like Gecko) Chrome/112.0.0.0 Safari/537.36" etag="rejj2EcuqHnVEtsXJC1u" version="21.2.1" type="device">
  <diagram name="Page-1" id="03018318-947c-dd8e-b7a3-06fadd420f32">
    <mxGraphModel dx="1034" dy="430" grid="1" gridSize="10" guides="1" tooltips="1" connect="1" arrows="1" fold="1" page="1" pageScale="1" pageWidth="1100" pageHeight="850" background="none" math="0" shadow="0">
      <root>
        <mxCell id="0" />
        <mxCell id="1" parent="0" />
        <mxCell id="677b7b8949515195-1" value="" style="whiteSpace=wrap;html=1;rounded=0;shadow=0;labelBackgroundColor=none;strokeColor=#000000;strokeWidth=1;fillColor=none;fontFamily=Verdana;fontSize=12;fontColor=#000000;align=center;comic=1;" parent="1" vertex="1">
          <mxGeometry x="20" y="20" width="1060" height="730" as="geometry" />
        </mxCell>
        <mxCell id="677b7b8949515195-8" value="" style="whiteSpace=wrap;html=1;rounded=0;shadow=0;labelBackgroundColor=none;strokeWidth=1;fillColor=none;fontFamily=Verdana;fontSize=12;align=center;comic=1;" parent="1" vertex="1">
          <mxGeometry x="30" y="30" width="140" height="700" as="geometry" />
        </mxCell>
        <mxCell id="677b7b8949515195-15" value="Reviews/testimonials" style="whiteSpace=wrap;html=1;rounded=0;shadow=0;labelBackgroundColor=none;strokeWidth=1;fillColor=none;fontFamily=Verdana;fontSize=12;align=center;verticalAlign=top;spacing=10;comic=1;" parent="1" vertex="1">
          <mxGeometry x="180" y="447" width="390" height="180" as="geometry" />
        </mxCell>
        <mxCell id="677b7b8949515195-26" value="&lt;div&gt;Opening Hours&lt;/div&gt;&lt;div&gt;Phone Number&lt;/div&gt;&lt;div&gt;Map&lt;br&gt;&lt;/div&gt;" style="whiteSpace=wrap;html=1;rounded=0;shadow=0;labelBackgroundColor=none;strokeWidth=1;fillColor=none;fontFamily=Verdana;fontSize=12;align=center;comic=1;" parent="1" vertex="1">
          <mxGeometry x="820" y="447" width="230" height="180" as="geometry" />
        </mxCell>
        <mxCell id="qz_svecnsdqs3by7-r_0-2" value="Vet Clinic Name" style="whiteSpace=wrap;html=1;rounded=0;shadow=0;labelBackgroundColor=none;strokeWidth=1;fontFamily=Verdana;fontSize=28;align=center;comic=1;" parent="1" vertex="1">
          <mxGeometry x="180" y="30" width="680" height="100" as="geometry" />
        </mxCell>
        <mxCell id="qz_svecnsdqs3by7-r_0-7" value="Picture of us as vets" style="whiteSpace=wrap;html=1;rounded=0;shadow=0;labelBackgroundColor=none;strokeWidth=1;fillColor=none;fontFamily=Verdana;fontSize=12;align=center;comic=1;" parent="1" vertex="1">
          <mxGeometry x="580" y="447" width="230" height="180" as="geometry" />
        </mxCell>
        <mxCell id="qz_svecnsdqs3by7-r_0-8" value="" style="whiteSpace=wrap;html=1;rounded=0;shadow=0;labelBackgroundColor=none;strokeWidth=1;fontFamily=Verdana;fontSize=28;align=center;comic=1;" parent="1" vertex="1">
          <mxGeometry x="180" y="640" width="870" height="60" as="geometry" />
        </mxCell>
        <mxCell id="qz_svecnsdqs3by7-r_0-9" value="" style="verticalLabelPosition=bottom;shadow=0;dashed=0;align=center;html=1;verticalAlign=top;strokeWidth=1;shape=mxgraph.mockup.misc.help_icon;" parent="1" vertex="1">
          <mxGeometry x="730" y="654" width="32" height="32" as="geometry" />
        </mxCell>
        <mxCell id="qz_svecnsdqs3by7-r_0-10" value="" style="verticalLabelPosition=bottom;shadow=0;dashed=0;align=center;html=1;verticalAlign=top;strokeWidth=1;shape=mxgraph.mockup.misc.help_icon;" parent="1" vertex="1">
          <mxGeometry x="679" y="654" width="32" height="32" as="geometry" />
        </mxCell>
        <mxCell id="qz_svecnsdqs3by7-r_0-11" value="" style="verticalLabelPosition=bottom;shadow=0;dashed=0;align=center;html=1;verticalAlign=top;strokeWidth=1;shape=mxgraph.mockup.misc.help_icon;" parent="1" vertex="1">
          <mxGeometry x="778" y="654" width="32" height="32" as="geometry" />
        </mxCell>
        <mxCell id="qz_svecnsdqs3by7-r_0-12" value="Cookie Policy" style="text;html=1;points=[];align=left;verticalAlign=top;spacingTop=-4;fontSize=14;fontFamily=Verdana" parent="1" vertex="1">
          <mxGeometry x="190" y="649" width="100" height="20" as="geometry" />
        </mxCell>
        <mxCell id="qz_svecnsdqs3by7-r_0-13" value="Vet Accreditation, Company Registration, Copyright, Registered Address" style="text;html=1;points=[];align=left;verticalAlign=top;spacingTop=-4;fontSize=14;fontFamily=Verdana;fillColor=#f5f5f5;fontColor=#333333;strokeColor=none;" parent="1" vertex="1">
          <mxGeometry x="180" y="710" width="860" height="20" as="geometry" />
        </mxCell>
        <mxCell id="qz_svecnsdqs3by7-r_0-14" value="Privacy Policy" style="text;html=1;points=[];align=left;verticalAlign=top;spacingTop=-4;fontSize=14;fontFamily=Verdana" parent="1" vertex="1">
          <mxGeometry x="190" y="669" width="100" height="20" as="geometry" />
        </mxCell>
        <mxCell id="qz_svecnsdqs3by7-r_0-15" value="Terms of Use" style="text;html=1;points=[];align=left;verticalAlign=top;spacingTop=-4;fontSize=14;fontFamily=Verdana" parent="1" vertex="1">
          <mxGeometry x="370" y="649" width="100" height="20" as="geometry" />
        </mxCell>
        <mxCell id="qz_svecnsdqs3by7-r_0-16" value="Complaints Policy" style="text;html=1;points=[];align=left;verticalAlign=top;spacingTop=-4;fontSize=14;fontFamily=Verdana" parent="1" vertex="1">
          <mxGeometry x="370" y="669" width="100" height="20" as="geometry" />
        </mxCell>
        <mxCell id="qz_svecnsdqs3by7-r_0-17" value="&lt;div align=&quot;center&quot;&gt;&lt;font style=&quot;font-size: 14px;&quot;&gt;Logout&lt;/font&gt;&lt;/div&gt;" style="whiteSpace=wrap;html=1;rounded=0;shadow=0;labelBackgroundColor=none;strokeWidth=1;fontFamily=Verdana;fontSize=28;align=center;comic=1;" parent="1" vertex="1">
          <mxGeometry x="900" y="40" width="120" height="80" as="geometry" />
        </mxCell>
        <mxCell id="qz_svecnsdqs3by7-r_0-18" value="Data Management Options" style="whiteSpace=wrap;html=1;rounded=0;shadow=0;labelBackgroundColor=none;strokeWidth=1;fontFamily=Verdana;fontSize=28;align=center;comic=1;" parent="1" vertex="1">
          <mxGeometry x="190" y="140" width="440" height="60" as="geometry" />
        </mxCell>
        <mxCell id="qz_svecnsdqs3by7-r_0-19" value="Home" style="text;html=1;points=[];align=left;verticalAlign=top;spacingTop=-4;fontSize=14;fontFamily=Verdana" parent="1" vertex="1">
          <mxGeometry x="40" y="160" width="110" height="20" as="geometry" />
        </mxCell>
        <mxCell id="qz_svecnsdqs3by7-r_0-20" value="About Us" style="text;html=1;points=[];align=left;verticalAlign=top;spacingTop=-4;fontSize=14;fontFamily=Verdana" parent="1" vertex="1">
          <mxGeometry x="40" y="190" width="110" height="20" as="geometry" />
        </mxCell>
        <mxCell id="qz_svecnsdqs3by7-r_0-21" value="Products" style="text;html=1;points=[];align=left;verticalAlign=top;spacingTop=-4;fontSize=14;fontFamily=Verdana" parent="1" vertex="1">
          <mxGeometry x="40" y="220" width="110" height="20" as="geometry" />
        </mxCell>
        <mxCell id="qz_svecnsdqs3by7-r_0-22" value="Account" style="text;html=1;points=[];align=left;verticalAlign=top;spacingTop=-4;fontSize=14;fontFamily=Verdana" parent="1" vertex="1">
          <mxGeometry x="40" y="250" width="110" height="20" as="geometry" />
        </mxCell>
        <mxCell id="qz_svecnsdqs3by7-r_0-23" value="Pet Advice" style="text;html=1;points=[];align=left;verticalAlign=top;spacingTop=-4;fontSize=14;fontFamily=Verdana" parent="1" vertex="1">
          <mxGeometry x="40" y="280" width="110" height="20" as="geometry" />
        </mxCell>
        <mxCell id="qz_svecnsdqs3by7-r_0-25" value="Admin" style="text;html=1;points=[];align=left;verticalAlign=top;spacingTop=-4;fontSize=14;fontFamily=Verdana" parent="1" vertex="1">
          <mxGeometry x="40" y="690" width="110" height="20" as="geometry" />
        </mxCell>
        <mxCell id="fUc4yykez93ghkNxuhbC-1" value="LOGO" style="whiteSpace=wrap;html=1;rounded=0;shadow=0;labelBackgroundColor=none;strokeWidth=1;fontFamily=Verdana;fontSize=28;align=center;comic=1;" parent="1" vertex="1">
          <mxGeometry x="50" y="60" width="120" height="80" as="geometry" />
        </mxCell>
        <mxCell id="fUc4yykez93ghkNxuhbC-3" value="" style="strokeWidth=1;shadow=0;dashed=0;align=center;html=1;shape=mxgraph.mockup.buttons.multiButton;fillColor=#008cff;strokeColor=#666666;mainText=;subText=;" parent="1" vertex="1">
          <mxGeometry x="190" y="270" width="270" height="50" as="geometry" />
        </mxCell>
        <mxCell id="fUc4yykez93ghkNxuhbC-4" value="Patients" style="strokeWidth=1;shadow=0;dashed=0;align=center;html=1;shape=mxgraph.mockup.anchor;fontSize=16;fontColor=#ffffff;fontStyle=1;whiteSpace=wrap;" parent="fUc4yykez93ghkNxuhbC-3" vertex="1">
          <mxGeometry y="8" width="270" height="20" as="geometry" />
        </mxCell>
        <mxCell id="fUc4yykez93ghkNxuhbC-5" value="view, add, update" style="strokeWidth=1;shadow=0;dashed=0;align=center;html=1;shape=mxgraph.mockup.anchor;fontSize=12;fontColor=#ffffff;fontStyle=1;whiteSpace=wrap;" parent="fUc4yykez93ghkNxuhbC-3" vertex="1">
          <mxGeometry y="30" width="270" height="10" as="geometry" />
        </mxCell>
        <mxCell id="fUc4yykez93ghkNxuhbC-6" value="" style="strokeWidth=1;shadow=0;dashed=0;align=center;html=1;shape=mxgraph.mockup.buttons.multiButton;fillColor=#008cff;strokeColor=#666666;mainText=;subText=;" parent="1" vertex="1">
          <mxGeometry x="191" y="210" width="270" height="50" as="geometry" />
        </mxCell>
        <mxCell id="fUc4yykez93ghkNxuhbC-7" value="Customers" style="strokeWidth=1;shadow=0;dashed=0;align=center;html=1;shape=mxgraph.mockup.anchor;fontSize=16;fontColor=#ffffff;fontStyle=1;whiteSpace=wrap;" parent="fUc4yykez93ghkNxuhbC-6" vertex="1">
          <mxGeometry y="8" width="270" height="20" as="geometry" />
        </mxCell>
        <mxCell id="fUc4yykez93ghkNxuhbC-8" value="view, add, update, contact" style="strokeWidth=1;shadow=0;dashed=0;align=center;html=1;shape=mxgraph.mockup.anchor;fontSize=12;fontColor=#ffffff;fontStyle=1;whiteSpace=wrap;" parent="fUc4yykez93ghkNxuhbC-6" vertex="1">
          <mxGeometry x="-2" y="30" width="270" height="10" as="geometry" />
        </mxCell>
        <mxCell id="fUc4yykez93ghkNxuhbC-9" value="" style="strokeWidth=1;shadow=0;dashed=0;align=center;html=1;shape=mxgraph.mockup.buttons.multiButton;fillColor=#008cff;strokeColor=#666666;mainText=;subText=;" parent="1" vertex="1">
          <mxGeometry x="190" y="330" width="270" height="50" as="geometry" />
        </mxCell>
        <mxCell id="fUc4yykez93ghkNxuhbC-10" value="Orders" style="strokeWidth=1;shadow=0;dashed=0;align=center;html=1;shape=mxgraph.mockup.anchor;fontSize=16;fontColor=#ffffff;fontStyle=1;whiteSpace=wrap;" parent="fUc4yykez93ghkNxuhbC-9" vertex="1">
          <mxGeometry y="8" width="270" height="20" as="geometry" />
        </mxCell>
        <mxCell id="fUc4yykez93ghkNxuhbC-11" value="view, acknowledge collection, contact, cancel" style="strokeWidth=1;shadow=0;dashed=0;align=center;html=1;shape=mxgraph.mockup.anchor;fontSize=12;fontColor=#ffffff;fontStyle=1;whiteSpace=wrap;" parent="fUc4yykez93ghkNxuhbC-9" vertex="1">
          <mxGeometry y="30" width="270" height="10" as="geometry" />
        </mxCell>
        <mxCell id="fUc4yykez93ghkNxuhbC-12" value="" style="strokeWidth=1;shadow=0;dashed=0;align=center;html=1;shape=mxgraph.mockup.buttons.multiButton;fillColor=#008cff;strokeColor=#666666;mainText=;subText=;" parent="1" vertex="1">
          <mxGeometry x="190" y="390" width="270" height="50" as="geometry" />
        </mxCell>
        <mxCell id="fUc4yykez93ghkNxuhbC-13" value="Products" style="strokeWidth=1;shadow=0;dashed=0;align=center;html=1;shape=mxgraph.mockup.anchor;fontSize=16;fontColor=#ffffff;fontStyle=1;whiteSpace=wrap;" parent="fUc4yykez93ghkNxuhbC-12" vertex="1">
          <mxGeometry y="8" width="270" height="20" as="geometry" />
        </mxCell>
        <mxCell id="fUc4yykez93ghkNxuhbC-14" value="view, add, update, delete" style="strokeWidth=1;shadow=0;dashed=0;align=center;html=1;shape=mxgraph.mockup.anchor;fontSize=12;fontColor=#ffffff;fontStyle=1;whiteSpace=wrap;" parent="fUc4yykez93ghkNxuhbC-12" vertex="1">
          <mxGeometry y="30" width="270" height="10" as="geometry" />
        </mxCell>
      </root>
    </mxGraphModel>
  </diagram>
</mxfile>
